<svg width="193" height="84" viewBox="0 0 193 84" fill="none" xmlns="http://www.w3.org/2000/svg">
<path d="M70.4368 14.5882V75.7353M96.4757 34.9706V48.5588M122.514 14.5882V75.7353M148.553 14.5882V68.9412M18.3592 1V82.5294M174.592 41.7647V48.5588M44.398 28.1765V62.1471M79.1164 28.1765V62.1471M105.155 41.7647V48.5588M131.194 7.79412V75.7353M1 34.9706V48.5588M157.233 34.9706V48.5588M27.0388 21.3824V62.1471M183.272 28.1765V62.1471M53.0776 14.5882V68.9412M87.7961 28.1765V62.1471M113.835 21.3824V62.1471M139.874 21.3824V62.1471M9.6796 14.5882V68.9412M165.912 14.5882V68.9412M35.7184 28.1765V62.1471M191.951 34.9706V48.5588M61.7572 34.9706V48.5588" stroke="#315AFF" stroke-width="2" stroke-linecap="round"/>
</svg>
