<svg width="194" height="84" viewBox="0 0 194 84" fill="none" xmlns="http://www.w3.org/2000/svg">
<path d="M71.3881 15.0588V76.2059M97.4269 35.4412V49.0294M123.466 15.0588V76.2059M149.505 15.0588V69.4118M19.3105 1.47058V83M175.543 42.2353V49.0294M45.3493 28.6471V62.6176M80.0677 28.6471V62.6176M106.107 42.2353V49.0294M132.145 8.2647V76.2059M1.95129 35.4412V49.0294M158.184 35.4412V49.0294M27.9901 21.8529V62.6176M184.223 28.6471V62.6176M54.0289 15.0588V69.4118M88.7473 28.6471V62.6176M114.786 21.8529V62.6176M140.825 21.8529V62.6176M10.6309 15.0588V69.4118M166.864 15.0588V69.4118M36.6697 28.6471V62.6176M192.903 35.4412V49.0294M62.7085 35.4412V49.0294" stroke="white" stroke-width="2" stroke-linecap="round"/>
</svg>
